<svg xmlns="http://www.w3.org/2000/svg" version="1.1" xmlns:xlink="http://www.w3.org/1999/xlink" xmlns:svgjs="http://svgjs.dev/svgjs" width="512" height="512" preserveAspectRatio="none" viewBox="0 0 512 512"><g mask="url(&quot;#SvgjsMask1948&quot;)" fill="none"><rect width="512" height="512" x="0" y="0" fill="rgba(226, 234, 243, 1)"></rect><use xlink:href="#SvgjsG1966" transform="translate(0, 0)" fill="rgba(143, 177, 211, 1)"></use></g><defs><mask id="SvgjsMask1948"><rect width="512" height="512" fill="#ffffff"></rect></mask><g id="SvgjsG1962"><path d="M14.59 10.14C15.95 5.95 14.49 1.72 11.33 0.7c-1.55-0.5-3.21-0.14-4.67 0.84l-3.43-1.11 0.51 4.55c-0.23 0.46-0.43 0.94-0.59 1.44-1.36 4.19 0.1 8.42 3.25 9.45C9.56 16.89 13.22 14.33 14.59 10.14z" fill-rule="evenodd"></path></g><g id="SvgjsG1949"><path d="M15.43 11.02C16.28 8.4 15.1 5.35 13.1 4.14c-0.45-0.27-1.66-0.8-1.67-0.8L8.79 1.14A0.49 0.49 0 0 0 8.62 1.05a0.49 0.49 0 0 0-0.62 0.32l-0.25 0.77-1.62-0.52c-1.26-0.41-2.61 0.28-3.01 1.53l-0.3 0.91L1.06 3.48l-2.01 6.16L3.95 11.24c0.62 1.69 1.98 3.08 3.83 3.68C10.97 15.95 14.39 14.21 15.43 11.02z m-5.61-6.64c0.11-0.35 0.5-0.55 0.85-0.43a0.68 0.68 0 0 1 0.44 0.85c-0.12 0.36-0.5 0.55-0.85 0.44a0.68 0.68 0 0 1-0.44-0.86z"></path></g><g id="SvgjsG1950"><path d="M3.75 6.04S5.53 5.51 6.35 2.97C7.11 0.64 6.83-0.79 6.83-0.79L16.24 2.27s0.28 1.43-0.46 3.76C14.97 8.58 13.16 9.1 13.16 9.1L3.75 6.04z m-0.34 1.03s1.13 1.47 0.3 4.02c-0.76 2.33-1.83 3.32-1.82 3.32L11.3 17.47s1.07-0.99 1.84-3.32c0.84-2.54-0.32-4.02-0.32-4.02l-9.41-3.06z"></path><path d="M0.64 5.62S3.35 4.81 4.17 2.26c0.76-2.33 0.47-3.76 0.48-3.76l1.13 0.37s0.28 1.43-0.46 3.76c-0.81 2.55-3.55 3.35-3.55 3.36L0.64 5.62z m0 0s1.71 2.25 0.89 4.8c-0.76 2.33-1.83 3.32-1.83 3.32l1.13 0.37s1.07-0.99 1.84-3.32c0.84-2.54-0.9-4.8-0.9-4.8l-1.13-0.37z"></path></g><g id="SvgjsG1956"><path d="M4.54-0.15l-4.33 13.33L10.32 16.47 14.65 3.13l-10.11-3.28z m5.37 14.68L7.04 8.89c-0.3-0.58-0.03-1.35 0.56-1.64l5.6-2.86-3.29 10.13z m2.84-10.97l-4.59 2.32-2.34-4.58 6.92 2.25z m-7.79-1.84l2.34 4.58-0.19 0.1c-1.04 0.57-1.47 1.87-0.95 2.9l0.1 0.2-4.59 2.36 3.29-10.15z m-2.85 11.01L6.7 10.39 9.03 14.97 2.11 12.72z" fill-rule="evenodd"></path></g><g id="SvgjsG1952"><path d="M0.72 13.8l0 0s3.81-1.94 3.81-1.94a0.6 0.6 0 0 0 0.26-0.82L3.89 9.29c-0.35-0.68 0.32-1.2 1.78-2.13 0.96-0.62 2.2-1.29 3.51-1.79 0.92-0.35 1.86-0.62 2.22 0.09 0 0 0.89 1.76 0.9 1.76l0 0c0.16 0.32 0.53 0.41 0.82 0.26l0.01 0L17.04 5.48c0.3-0.15 0.42-0.52 0.27-0.81L16.41 2.9C15.9 2.13 13.02-0.16 5.96 3.33c-7.44 3.68-7.39 7.62-6.95 8.45 0 0 0.88 1.76 0.88 1.76l0 0c0.16 0.32 0.53 0.41 0.83 0.26z"></path></g><g id="SvgjsG1957"><path d="M-0.04 13.78L5.37 11.03a6.3 6.3 0 1 0-1.23-6.07 6.26 6.26 0 0 0-0.14 3.39l-5.4 2.75L-0.04 13.78zM11.34 3.2a3.91 3.91 0 0 1 2.5 4.92 3.91 3.91 0 0 1-4.91 2.5 3.9 3.9 0 0 1 2.41-7.42z"></path></g><g id="SvgjsG1964"><path d="M13.14 1.26l-0.98 2.99-5.32-1.73L7.81-0.47z"></path><path d="M2.52 4.39L7.07 1.82l5.24 1.7 2.24 4.78L8.27 7.18z"></path><path d="M14.55 8.3S11.26 8.15 8.27 7.18s-5.74-2.79-5.75-2.79m-3.35 7.24l1.04-1.03c0.02 0.02 2.46 2.44 6.01 3.6 3.53 1.15 6.98 0.39 7.01 0.37l0.33 1.43c-0.16 0.04-3.87 0.86-7.79-0.41-3.9-1.27-6.49-3.85-6.6-3.96z"></path><path d="M1.58 9.91l1.04-1.03c0.02 0.02 1.8 1.78 4.39 2.62 2.58 0.84 5.08 0.28 5.1 0.27l0.32 1.43c-0.12 0.03-2.92 0.65-5.88-0.31-2.94-0.95-4.89-2.9-4.97-2.98z"></path><path d="M4.11 8.36l1.04-1.03c0.01 0.01 1.1 1.09 2.69 1.6 1.56 0.51 3.1 0.17 3.11 0.17l0.33 1.43c-0.08 0.02-1.94 0.43-3.9-0.2-1.93-0.63-3.22-1.91-3.27-1.97z"></path></g><g id="SvgjsG1961"><path d="M8.47 14.7L0.94 3.98l6.44 4 1.24-4.03L16.33 8.26l-1.59 4.88L10.16 9.48z"></path></g><g id="SvgjsG1965"><path d="M6.41 1.92L6.41 1.91l-2.39-0.78c0.19 0.66 1.07 4.15 1.13 4.57l-1.36 4.21c-0.47 1.45 0.32 3.01 1.77 3.49L11.03 15.17A2.77 2.77 0 0 0 14.51 13.4l2.49-7.68c0.47-1.45-0.32-3.01-1.78-3.48l-5.46-1.78a2.77 2.77 0 0 0-3.36 1.46z" fill-rule="evenodd"></path></g><g id="SvgjsG1959"><path d="M13.69 9.85C14.98 5.87 13.6 1.85 10.6 0.88c-1.47-0.48-3.05-0.14-4.44 0.8l-3.26-1.06 0.48 4.33c-0.22 0.43-0.41 0.89-0.56 1.37-1.29 3.98 0.09 8 3.09 8.97 3 0.97 6.48-1.46 7.77-5.44zM8.1 4.68a1.07 1.07 0 1 1 2.03 0.66 1.07 1.07 0 0 1-2.03-0.66z m-0.99 3.03a1.07 1.07 0 1 1 2.03 0.66 1.07 1.07 0 0 1-2.03-0.66z m-0.97 2.99c0.18-0.56 0.78-0.87 1.35-0.69s0.87 0.78 0.68 1.35-0.78 0.87-1.34 0.68a1.07 1.07 0 0 1-0.69-1.34z"></path></g><g id="SvgjsG1960"><path d="M5.95 2.64l-1.24 3.84c-0.29 0.31-3.63 2.82-4.18 3.25l2.84 0.93 0.01-0.02a2.76 2.76 0 0 0 1.86 3.15L10.7 15.57c1.45 0.47 3.01-0.32 3.49-1.78L16.68 6.13c0.47-1.46-0.32-3.01-1.78-3.49l-5.46-1.77c-1.45-0.47-3.01 0.32-3.49 1.77z" fill-rule="evenodd"></path></g><g id="SvgjsG1951"><path d="M8.2-0.35a3.58 3.58 0 1 0-2.22 6.82 3.58 3.58 0 1 0 2.22-6.82"></path><path d="M6.12 7.39a4 4 0 1 0-2.47 7.61 4 4 0 1 0 2.47-7.61"></path><path d="M10.45 3.18a5.05 5.05 0 1 0-3.12 9.61 5.05 5.05 0 1 0 3.12-9.61"></path><path d="M9.38 3.81L6.63 12.29l-5.7-1.86L3.68 1.95z"></path></g><g id="SvgjsG1954"><path d="M13.19 9.69C14.74 4.92 10.47 0.4 10.47 0.4S4.36 1.54 2.81 6.31 5.53 15.6 5.53 15.6 11.64 14.46 13.19 9.69z m-8.29-2.7c0.55-1.71 2.39-2.64 4.11-2.09S11.65 7.3 11.1 9.01 8.7 11.65 6.99 11.09s-2.64-2.39-2.09-4.1z"></path><path d="M8.52 6.15a1.92 1.92 0 1 0-1.19 3.65 1.92 1.92 0 1 0 1.19-3.65"></path></g><g id="SvgjsG1953"><path d="M11.03 0.58L13.14 18.08 0.22 6.08l7.75 1.86z"></path></g><g id="SvgjsG1955"><path d="M14.72 5.72l-0.77 2.37-10.59-3.44 0.78-2.37zM13.4 15.54L12.63 17.91l-10.71-3.48 0.77-2.37z"></path><path d="M11.42 5.38l3.3 0.34L13.14 18.08l-3.02-0.98z"></path><path d="M5.3-1.29a2.61 3.12 18 1 0-1.94 5.94 2.61 3.12 18 1 0 1.94-5.94"></path><path d="M3.85 8.49a2.61 3.12 18 1 0-1.93 5.94 2.61 3.12 18 1 0 1.93-5.94"></path></g><g id="SvgjsG1963"><path d="M8.8 13.69L1.27 2.97l6.44 4 1.24-4.04L15.07 12.12 10.49 8.47l-1.69 5.22z" fill-rule="evenodd"></path></g><g id="SvgjsG1958"><path d="M13.58 9.81l-11.16-3.62c1-3.08 4.31-4.77 7.39-3.77 3.08 1 4.76 4.31 3.77 7.39m1.39 0.46c1.25-3.85-0.86-7.99-4.7-9.24s-7.99 0.86-9.25 4.7 0.86 7.99 4.71 9.24 7.99-0.86 9.24-4.7z"></path></g><g id="SvgjsG1966"><use xlink:href="#SvgjsG1949" transform="translate(0, 0) scale(2)" fill="rgba(143, 177, 211, 1)"></use><use xlink:href="#SvgjsG1950" transform="translate(0, 76) scale(2)" fill="rgba(143, 177, 211, 1)"></use><use xlink:href="#SvgjsG1951" transform="translate(0, 152) scale(2)" fill="rgba(143, 177, 211, 1)"></use><use xlink:href="#SvgjsG1951" transform="translate(0, 228) scale(2)" fill="rgba(143, 177, 211, 1)"></use><use xlink:href="#SvgjsG1952" transform="translate(0, 304) scale(2)" fill="rgba(143, 177, 211, 1)"></use><use xlink:href="#SvgjsG1953" transform="translate(0, 380) scale(2)" fill="rgba(143, 177, 211, 1)"></use><use xlink:href="#SvgjsG1954" transform="translate(0, 456) scale(2)" fill="rgba(143, 177, 211, 1)"></use><use xlink:href="#SvgjsG1949" transform="translate(76, 0) scale(2)" fill="rgba(143, 177, 211, 1)"></use><use xlink:href="#SvgjsG1953" transform="translate(76, 76) scale(2)" fill="rgba(143, 177, 211, 1)"></use><use xlink:href="#SvgjsG1955" transform="translate(76, 152) scale(2)" fill="rgba(143, 177, 211, 1)"></use><use xlink:href="#SvgjsG1949" transform="translate(76, 228) scale(2)" fill="rgba(143, 177, 211, 1)"></use><use xlink:href="#SvgjsG1952" transform="translate(76, 304) scale(2)" fill="rgba(143, 177, 211, 1)"></use><use xlink:href="#SvgjsG1952" transform="translate(76, 380) scale(2)" fill="rgba(143, 177, 211, 1)"></use><use xlink:href="#SvgjsG1955" transform="translate(76, 456) scale(2)" fill="rgba(143, 177, 211, 1)"></use><use xlink:href="#SvgjsG1956" transform="translate(152, 0) scale(2)" fill="rgba(143, 177, 211, 1)"></use><use xlink:href="#SvgjsG1957" transform="translate(152, 76) scale(2)" fill="rgba(143, 177, 211, 1)"></use><use xlink:href="#SvgjsG1952" transform="translate(152, 152) scale(2)" fill="rgba(143, 177, 211, 1)"></use><use xlink:href="#SvgjsG1958" transform="translate(152, 228) scale(2)" fill="rgba(143, 177, 211, 1)"></use><use xlink:href="#SvgjsG1959" transform="translate(152, 304) scale(2)" fill="rgba(143, 177, 211, 1)"></use><use xlink:href="#SvgjsG1956" transform="translate(152, 380) scale(2)" fill="rgba(143, 177, 211, 1)"></use><use xlink:href="#SvgjsG1949" transform="translate(152, 456) scale(2)" fill="rgba(143, 177, 211, 1)"></use><use xlink:href="#SvgjsG1960" transform="translate(228, 0) scale(2)" fill="rgba(143, 177, 211, 1)"></use><use xlink:href="#SvgjsG1950" transform="translate(228, 76) scale(2)" fill="rgba(143, 177, 211, 1)"></use><use xlink:href="#SvgjsG1949" transform="translate(228, 152) scale(2)" fill="rgba(143, 177, 211, 1)"></use><use xlink:href="#SvgjsG1953" transform="translate(228, 228) scale(2)" fill="rgba(143, 177, 211, 1)"></use><use xlink:href="#SvgjsG1961" transform="translate(228, 304) scale(2)" fill="rgba(143, 177, 211, 1)"></use><use xlink:href="#SvgjsG1962" transform="translate(228, 380) scale(2)" fill="rgba(143, 177, 211, 1)"></use><use xlink:href="#SvgjsG1957" transform="translate(228, 456) scale(2)" fill="rgba(143, 177, 211, 1)"></use><use xlink:href="#SvgjsG1951" transform="translate(304, 0) scale(2)" fill="rgba(143, 177, 211, 1)"></use><use xlink:href="#SvgjsG1960" transform="translate(304, 76) scale(2)" fill="rgba(143, 177, 211, 1)"></use><use xlink:href="#SvgjsG1963" transform="translate(304, 152) scale(2)" fill="rgba(143, 177, 211, 1)"></use><use xlink:href="#SvgjsG1959" transform="translate(304, 228) scale(2)" fill="rgba(143, 177, 211, 1)"></use><use xlink:href="#SvgjsG1957" transform="translate(304, 304) scale(2)" fill="rgba(143, 177, 211, 1)"></use><use xlink:href="#SvgjsG1964" transform="translate(304, 380) scale(2)" fill="rgba(143, 177, 211, 1)"></use><use xlink:href="#SvgjsG1958" transform="translate(304, 456) scale(2)" fill="rgba(143, 177, 211, 1)"></use><use xlink:href="#SvgjsG1953" transform="translate(380, 0) scale(2)" fill="rgba(143, 177, 211, 1)"></use><use xlink:href="#SvgjsG1963" transform="translate(380, 76) scale(2)" fill="rgba(143, 177, 211, 1)"></use><use xlink:href="#SvgjsG1956" transform="translate(380, 152) scale(2)" fill="rgba(143, 177, 211, 1)"></use><use xlink:href="#SvgjsG1960" transform="translate(380, 228) scale(2)" fill="rgba(143, 177, 211, 1)"></use><use xlink:href="#SvgjsG1955" transform="translate(380, 304) scale(2)" fill="rgba(143, 177, 211, 1)"></use><use xlink:href="#SvgjsG1962" transform="translate(380, 380) scale(2)" fill="rgba(143, 177, 211, 1)"></use><use xlink:href="#SvgjsG1955" transform="translate(380, 456) scale(2)" fill="rgba(143, 177, 211, 1)"></use><use xlink:href="#SvgjsG1955" transform="translate(456, 0) scale(2)" fill="rgba(143, 177, 211, 1)"></use><use xlink:href="#SvgjsG1964" transform="translate(456, 76) scale(2)" fill="rgba(143, 177, 211, 1)"></use><use xlink:href="#SvgjsG1960" transform="translate(456, 152) scale(2)" fill="rgba(143, 177, 211, 1)"></use><use xlink:href="#SvgjsG1954" transform="translate(456, 228) scale(2)" fill="rgba(143, 177, 211, 1)"></use><use xlink:href="#SvgjsG1964" transform="translate(456, 304) scale(2)" fill="rgba(143, 177, 211, 1)"></use><use xlink:href="#SvgjsG1952" transform="translate(456, 380) scale(2)" fill="rgba(143, 177, 211, 1)"></use><use xlink:href="#SvgjsG1965" transform="translate(456, 456) scale(2)" fill="rgba(143, 177, 211, 1)"></use></g></defs></svg>